<?xml version="1.0" encoding="utf-8"?>
<!-- Generator: Adobe Illustrator 16.0.4, SVG Export Plug-In . SVG Version: 6.00 Build 0)  -->
<!DOCTYPE svg PUBLIC "-//W3C//DTD SVG 1.1//EN" "http://www.w3.org/Graphics/SVG/1.1/DTD/svg11.dtd">
<svg version="1.1" id="gr_x5F_icon15_x5F_similar_2_"
	 xmlns="http://www.w3.org/2000/svg" xmlns:xlink="http://www.w3.org/1999/xlink" x="0px" y="0px" width="250px" height="250px"
	 viewBox="0 0 250 250" enable-background="new 0 0 250 250" xml:space="preserve">
<g id="gr_x5F_big_37_">
	<path id="gr_225_" fill="#F3BA48" d="M237.67,172.861c0,9.539-6.759,21.251-15.019,26.019l-82.624,47.702
		c-8.266,4.771-21.784,4.771-30.043,0L27.36,198.88c-8.266-4.768-15.025-16.479-15.025-26.019V77.458
		c0-9.539,6.759-21.25,15.025-26.019l82.624-47.701c8.259-4.771,21.777-4.771,30.043,0l82.624,47.701
		c8.26,4.768,15.019,16.479,15.019,26.019V172.861z"/>
	<path fill="#FFFFFF" d="M169.646,165.932c-2.341,0-4.356,1.301-5.427,3.205l-16.79-1.095c-0.601-1.504-1.761-2.714-3.229-3.38
		l-1.465-75.384c1.43-0.739,2.525-1.999,3.048-3.543l18.712-2.229c1.127,1.639,3.01,2.717,5.151,2.717c3.452,0,6.25-2.797,6.25-6.25
		c0-3.453-2.798-6.25-6.25-6.25c-2.835,0-5.2,1.897-5.964,4.482l-18.527,2.208c-1.109-1.747-3.048-2.916-5.27-2.916
		c-2.459,0-4.565,1.433-5.584,3.495l-18.513-0.248c-0.987-2.148-3.146-3.652-5.667-3.652c-2.302,0-4.29,1.256-5.375,3.107
		l-18.697-2.242c-0.979-2.173-3.151-3.69-5.688-3.69c-3.453,0-6.25,2.797-6.25,6.25c0,3.453,2.797,6.25,6.25,6.25
		c2.431,0,4.515-1.402,5.549-3.428l18.38,2.204c0.526,1.395,1.535,2.532,2.821,3.244l-3.034,75.823
		c-1.196,0.517-2.183,1.406-2.856,2.512l-14.997-1.507c-0.869-2.41-3.153-4.146-5.863-4.146c-3.453,0-6.25,2.8-6.25,6.25
		c0,3.452,2.797,6.25,6.25,6.25c2.267,0,4.232-1.218,5.329-3.024l14.997,1.507c0.869,2.413,3.153,4.146,5.863,4.146
		c2.49,0,4.622-1.465,5.626-3.571h23.828c1.005,2.106,3.136,3.571,5.626,3.571c2.344,0,4.363-1.304,5.43-3.212l16.787,1.092
		c0.914,2.315,3.16,3.955,5.8,3.955c3.452,0,6.25-2.797,6.25-6.25C175.896,168.732,173.098,165.932,169.646,165.932z
		 M109.426,164.829l3.027-75.697c1.427-0.575,2.57-1.664,3.25-3.031l18.517,0.248c0.639,1.388,1.758,2.504,3.16,3.118l1.461,75.313
		c-1.242,0.621-2.242,1.633-2.839,2.889h-23.828C111.592,166.444,110.626,165.457,109.426,164.829z"/>
</g>
</svg>
